<svg width="427" height="30" viewBox="0 0 427 30" fill="none" xmlns="http://www.w3.org/2000/svg">
<circle cx="17.9539" cy="17.9537" r="2.28502" transform="rotate(-180 17.9539 17.9537)" fill="#5D9275"/>
<circle cx="10.1195" cy="17.9537" r="2.28502" transform="rotate(-180 10.1195 17.9537)" fill="#5D9275"/>
<circle cx="2.28517" cy="17.9537" r="2.28502" transform="rotate(-180 2.28517 17.9537)" fill="#5D9275"/>
<circle cx="17.9539" cy="10.1194" r="2.28502" transform="rotate(-180 17.9539 10.1194)" fill="#5D9275"/>
<circle cx="10.1195" cy="10.1194" r="2.28502" transform="rotate(-180 10.1195 10.1194)" fill="#5D9275"/>
<circle cx="2.28517" cy="10.1194" r="2.28502" transform="rotate(-180 2.28517 10.1194)" fill="#5D9275"/>
<circle cx="17.9539" cy="2.28502" r="2.28502" transform="rotate(-180 17.9539 2.28502)" fill="#5D9275"/>
<circle cx="10.1195" cy="2.28502" r="2.28502" transform="rotate(-180 10.1195 2.28502)" fill="#5D9275"/>
<circle cx="2.28517" cy="2.28502" r="2.28502" transform="rotate(-180 2.28517 2.28502)" fill="#5D9275"/>
<path d="M19.3509 11.872V5.20003H22.6389V22H19.3509V15.04H13.1109V22H9.79889V5.20003H13.1109V11.872H19.3509ZM37.2798 17.272H28.2318C28.6318 18.776 29.7598 19.528 31.6158 19.528C32.7998 19.528 33.6958 19.128 34.3038 18.328L36.7998 19.768C35.6158 21.48 33.8718 22.336 31.5678 22.336C29.5838 22.336 27.9918 21.736 26.7918 20.536C25.5918 19.336 24.9918 17.824 24.9918 16C24.9918 14.208 25.5838 12.704 26.7678 11.488C27.9358 10.272 29.4558 9.66403 31.3278 9.66403C33.1038 9.66403 34.5518 10.272 35.6718 11.488C36.8238 12.704 37.3998 14.208 37.3998 16C37.3998 16.336 37.3598 16.76 37.2798 17.272ZM28.1838 14.872H34.3038C34.1278 14.088 33.7678 13.488 33.2238 13.072C32.6958 12.656 32.0638 12.448 31.3278 12.448C30.4958 12.448 29.8078 12.664 29.2638 13.096C28.7198 13.512 28.3598 14.104 28.1838 14.872ZM37.9164 10H48.5484V12.976H44.8044V22H41.7084V12.976H37.9164V10ZM65.3218 11.416V10H68.4178V22H65.3218V20.584C64.3938 21.752 63.0898 22.336 61.4098 22.336C59.8098 22.336 58.4338 21.728 57.2818 20.512C56.1458 19.28 55.5778 17.776 55.5778 16C55.5778 14.24 56.1458 12.744 57.2818 11.512C58.4338 10.28 59.8098 9.66403 61.4098 9.66403C63.0898 9.66403 64.3938 10.248 65.3218 11.416ZM59.6098 18.448C60.2338 19.072 61.0258 19.384 61.9858 19.384C62.9458 19.384 63.7378 19.072 64.3618 18.448C65.0018 17.808 65.3218 16.992 65.3218 16C65.3218 15.008 65.0018 14.2 64.3618 13.576C63.7378 12.936 62.9458 12.616 61.9858 12.616C61.0258 12.616 60.2338 12.936 59.6098 13.576C58.9858 14.2 58.6738 15.008 58.6738 16C58.6738 16.992 58.9858 17.808 59.6098 18.448ZM77.3212 15.928L82.2892 22H78.6892L74.3212 16.552V22H71.2252V10H74.3212V15.28L78.4492 10H82.1452L77.3212 15.928ZM89.9306 15.928L94.8986 22H91.2986L86.9306 16.552V22H83.8346V10H86.9306V15.28L91.0586 10H94.7546L89.9306 15.928ZM104.697 11.416V10H107.793V22H104.697V20.584C103.769 21.752 102.465 22.336 100.785 22.336C99.1848 22.336 97.8088 21.728 96.6568 20.512C95.5208 19.28 94.9528 17.776 94.9528 16C94.9528 14.24 95.5208 12.744 96.6568 11.512C97.8088 10.28 99.1848 9.66403 100.785 9.66403C102.465 9.66403 103.769 10.248 104.697 11.416ZM98.9848 18.448C99.6088 19.072 100.401 19.384 101.361 19.384C102.321 19.384 103.113 19.072 103.737 18.448C104.377 17.808 104.697 16.992 104.697 16C104.697 15.008 104.377 14.2 103.737 13.576C103.113 12.936 102.321 12.616 101.361 12.616C100.401 12.616 99.6088 12.936 98.9848 13.576C98.3608 14.2 98.0488 15.008 98.0488 16C98.0488 16.992 98.3608 17.808 98.9848 18.448ZM115.76 18.064L118.424 10H121.736L117.368 22C116.152 25.376 114.04 26.976 111.032 26.8V23.92C111.848 23.936 112.488 23.784 112.952 23.464C113.432 23.144 113.816 22.608 114.104 21.856L109.256 10H112.544L115.76 18.064ZM131.082 14.536V10H134.178V22H131.082V17.44H126.306V22H123.21V10H126.306V14.536H131.082ZM135.838 10H146.47V12.976H142.726V22H139.63V12.976H135.838V10ZM156.775 11.416V10H159.871V22H156.775V20.584C155.847 21.752 154.543 22.336 152.863 22.336C151.263 22.336 149.887 21.728 148.735 20.512C147.599 19.28 147.031 17.776 147.031 16C147.031 14.24 147.599 12.744 148.735 11.512C149.887 10.28 151.263 9.66403 152.863 9.66403C154.543 9.66403 155.847 10.248 156.775 11.416ZM151.063 18.448C151.687 19.072 152.479 19.384 153.439 19.384C154.399 19.384 155.191 19.072 155.815 18.448C156.455 17.808 156.775 16.992 156.775 16C156.775 15.008 156.455 14.2 155.815 13.576C155.191 12.936 154.399 12.616 153.439 12.616C152.479 12.616 151.687 12.936 151.063 13.576C150.439 14.2 150.127 15.008 150.127 16C150.127 16.992 150.439 17.808 151.063 18.448ZM169.067 16.36H165.755C165.755 15.704 165.955 15.056 166.355 14.416C166.755 13.776 167.227 13.24 167.771 12.808C169.115 11.72 169.787 10.728 169.787 9.83203C169.787 9.27203 169.595 8.84003 169.211 8.53603C168.827 8.23203 168.291 8.08003 167.603 8.08003C166.259 8.08003 165.307 8.79203 164.747 10.216L161.915 8.58403C162.395 7.41603 163.155 6.50403 164.195 5.84803C165.235 5.19203 166.411 4.86403 167.723 4.86403C169.163 4.86403 170.419 5.28803 171.491 6.13603C172.563 6.96803 173.099 8.12003 173.099 9.59203C173.099 10.248 172.955 10.872 172.667 11.464C172.395 12.04 172.059 12.536 171.659 12.952C171.275 13.352 170.883 13.736 170.483 14.104C170.099 14.456 169.763 14.824 169.475 15.208C169.203 15.592 169.067 15.976 169.067 16.36ZM169.451 20.272C169.451 20.832 169.251 21.312 168.851 21.712C168.451 22.112 167.971 22.312 167.411 22.312C166.851 22.312 166.371 22.112 165.971 21.712C165.571 21.312 165.371 20.832 165.371 20.272C165.371 19.712 165.571 19.232 165.971 18.832C166.371 18.432 166.851 18.232 167.411 18.232C167.971 18.232 168.451 18.432 168.851 18.832C169.251 19.232 169.451 19.712 169.451 20.272ZM181.756 10H192.724V22H189.628V12.904H184.852V22H181.756V10ZM202.545 9.66403C204.161 9.66403 205.537 10.28 206.673 11.512C207.825 12.744 208.401 14.24 208.401 16C208.401 17.792 207.825 19.296 206.673 20.512C205.553 21.728 204.177 22.336 202.545 22.336C200.865 22.336 199.569 21.752 198.657 20.584V26.8H195.561V10H198.657V11.416C199.569 10.248 200.865 9.66403 202.545 9.66403ZM199.593 18.448C200.217 19.072 201.009 19.384 201.969 19.384C202.929 19.384 203.721 19.072 204.345 18.448C204.985 17.808 205.305 16.992 205.305 16C205.305 15.008 204.985 14.2 204.345 13.576C203.721 12.936 202.929 12.616 201.969 12.616C201.009 12.616 200.217 12.936 199.593 13.576C198.969 14.2 198.657 15.008 198.657 16C198.657 16.992 198.969 17.808 199.593 18.448ZM220.809 20.512C219.593 21.728 218.089 22.336 216.297 22.336C214.505 22.336 213.001 21.728 211.785 20.512C210.569 19.296 209.961 17.792 209.961 16C209.961 14.224 210.569 12.728 211.785 11.512C213.017 10.28 214.521 9.66403 216.297 9.66403C218.073 9.66403 219.577 10.28 220.809 11.512C222.041 12.744 222.657 14.24 222.657 16C222.657 17.776 222.041 19.28 220.809 20.512ZM213.969 18.376C214.593 19 215.369 19.312 216.297 19.312C217.225 19.312 218.001 19 218.625 18.376C219.249 17.752 219.561 16.96 219.561 16C219.561 15.04 219.249 14.248 218.625 13.624C218.001 13 217.225 12.688 216.297 12.688C215.369 12.688 214.593 13 213.969 13.624C213.361 14.264 213.057 15.056 213.057 16C213.057 16.944 213.361 17.736 213.969 18.376ZM233.811 8.46403H226.851V5.77603H233.811V8.46403ZM227.859 16.816L233.499 10H235.803V22H232.779V15.184L227.139 22H224.835V10H227.859V16.816ZM249.439 10V19.096H251.023V25.216H247.999V22H240.559V25.216H237.535V19.096H238.999C239.687 18.072 240.031 16.656 240.031 14.848V10H249.439ZM242.311 19.096H246.415V12.784H243.055V14.848C243.055 16.576 242.807 17.992 242.311 19.096ZM256.007 16.816L261.647 10H263.951V22H260.927V15.184L255.287 22H252.983V10H256.007V16.816ZM279.772 9.66403C281.388 9.66403 282.764 10.28 283.9 11.512C285.052 12.744 285.628 14.24 285.628 16C285.628 17.792 285.052 19.296 283.9 20.512C282.78 21.728 281.404 22.336 279.772 22.336C278.092 22.336 276.796 21.752 275.884 20.584V26.8H272.788V10H275.884V11.416C276.796 10.248 278.092 9.66403 279.772 9.66403ZM276.82 18.448C277.444 19.072 278.236 19.384 279.196 19.384C280.156 19.384 280.948 19.072 281.572 18.448C282.212 17.808 282.532 16.992 282.532 16C282.532 15.008 282.212 14.2 281.572 13.576C280.948 12.936 280.156 12.616 279.196 12.616C278.236 12.616 277.444 12.936 276.82 13.576C276.196 14.2 275.884 15.008 275.884 16C275.884 16.992 276.196 17.808 276.82 18.448ZM299.475 17.272H290.427C290.827 18.776 291.955 19.528 293.811 19.528C294.995 19.528 295.891 19.128 296.499 18.328L298.995 19.768C297.811 21.48 296.067 22.336 293.763 22.336C291.779 22.336 290.187 21.736 288.987 20.536C287.787 19.336 287.187 17.824 287.187 16C287.187 14.208 287.779 12.704 288.963 11.488C290.131 10.272 291.651 9.66403 293.523 9.66403C295.299 9.66403 296.747 10.272 297.867 11.488C299.019 12.704 299.595 14.208 299.595 16C299.595 16.336 299.555 16.76 299.475 17.272ZM290.379 14.872H296.499C296.323 14.088 295.963 13.488 295.419 13.072C294.891 12.656 294.259 12.448 293.523 12.448C292.691 12.448 292.003 12.664 291.459 13.096C290.915 13.512 290.555 14.104 290.379 14.872ZM301.756 10H309.964V12.976H304.852V22H301.756V10ZM314.648 16.816L320.288 10H322.592V22H319.568V15.184L313.928 22H311.624V10H314.648V16.816ZM331.14 22.336C329.332 22.336 327.82 21.728 326.604 20.512C325.404 19.296 324.804 17.792 324.804 16C324.804 14.208 325.404 12.704 326.604 11.488C327.82 10.272 329.332 9.66403 331.14 9.66403C332.308 9.66403 333.372 9.94403 334.332 10.504C335.292 11.064 336.02 11.816 336.516 12.76L333.852 14.32C333.612 13.824 333.244 13.432 332.748 13.144C332.268 12.856 331.724 12.712 331.116 12.712C330.188 12.712 329.42 13.024 328.812 13.648C328.204 14.256 327.9 15.04 327.9 16C327.9 16.928 328.204 17.712 328.812 18.352C329.42 18.96 330.188 19.264 331.116 19.264C331.74 19.264 332.292 19.128 332.772 18.856C333.268 18.568 333.636 18.176 333.876 17.68L336.564 19.216C336.036 20.176 335.284 20.936 334.308 21.496C333.348 22.056 332.292 22.336 331.14 22.336ZM336.955 10H347.587V12.976H343.843V22H340.747V12.976H336.955V10ZM356.225 9.66403C357.841 9.66403 359.217 10.28 360.353 11.512C361.505 12.744 362.081 14.24 362.081 16C362.081 17.792 361.505 19.296 360.353 20.512C359.233 21.728 357.857 22.336 356.225 22.336C354.545 22.336 353.249 21.752 352.337 20.584V26.8H349.241V10H352.337V11.416C353.249 10.248 354.545 9.66403 356.225 9.66403ZM353.273 18.448C353.897 19.072 354.689 19.384 355.649 19.384C356.609 19.384 357.401 19.072 358.025 18.448C358.665 17.808 358.985 16.992 358.985 16C358.985 15.008 358.665 14.2 358.025 13.576C357.401 12.936 356.609 12.616 355.649 12.616C354.689 12.616 353.897 12.936 353.273 13.576C352.649 14.2 352.337 15.008 352.337 16C352.337 16.992 352.649 17.808 353.273 18.448ZM373.384 11.416V10H376.48V22H373.384V20.584C372.456 21.752 371.152 22.336 369.472 22.336C367.872 22.336 366.496 21.728 365.344 20.512C364.208 19.28 363.64 17.776 363.64 16C363.64 14.24 364.208 12.744 365.344 11.512C366.496 10.28 367.872 9.66403 369.472 9.66403C371.152 9.66403 372.456 10.248 373.384 11.416ZM367.672 18.448C368.296 19.072 369.088 19.384 370.048 19.384C371.008 19.384 371.8 19.072 372.424 18.448C373.064 17.808 373.384 16.992 373.384 16C373.384 15.008 373.064 14.2 372.424 13.576C371.8 12.936 371.008 12.616 370.048 12.616C369.088 12.616 368.296 12.936 367.672 13.576C367.048 14.2 366.736 15.008 366.736 16C366.736 16.992 367.048 17.808 367.672 18.448ZM389.848 10V19.096H391.864V25.216H388.84V22H379.288V10H382.384V19.096H386.752V10H389.848ZM396.843 16.816L402.483 10H404.787V22H401.763V15.184L396.123 22H393.819V10H396.843V16.816ZM418.544 9.66403C420.32 9.66403 421.824 10.28 423.056 11.512C424.288 12.744 424.904 14.24 424.904 16C424.904 17.776 424.288 19.28 423.056 20.512C421.84 21.728 420.336 22.336 418.544 22.336C417.04 22.336 415.728 21.88 414.608 20.968C413.488 20.056 412.768 18.88 412.448 17.44H410.72V22H407.624V10H410.72V14.536H412.472C412.792 13.112 413.512 11.944 414.632 11.032C415.768 10.12 417.072 9.66403 418.544 9.66403ZM416.216 18.376C416.84 19 417.616 19.312 418.544 19.312C419.472 19.312 420.248 19 420.872 18.376C421.496 17.752 421.808 16.96 421.808 16C421.808 15.04 421.496 14.248 420.872 13.624C420.248 13 419.472 12.688 418.544 12.688C417.616 12.688 416.84 13 416.216 13.624C415.608 14.264 415.304 15.056 415.304 16C415.304 16.944 415.608 17.736 416.216 18.376Z" fill="#EAEAF5"/>
</svg>
